<?xml version="1.0" encoding="iso-8859-1"?>
<!-- Generator: Adobe Illustrator 19.0.0, SVG Export Plug-In . SVG Version: 6.00 Build 0)  -->
<svg version="1.1" id="Capa_1" xmlns="http://www.w3.org/2000/svg" x="0px" y="0px"
     viewBox="0 0 511.999 511.999" style="enable-background:new 0 0 511.999 511.999;" xml:space="preserve">
<path style="fill:#0385DD;" d="M49.181,209.086h40.864v-53.38H51.349c-5.884,0-10.654,4.77-10.654,10.654v51.212
	C40.694,212.886,44.494,209.086,49.181,209.086z"/>
    <path style="fill:#0276C4;" d="M61.276,166.361c0-5.884,4.77-10.654,10.654-10.654H51.349c-5.884,0-10.654,4.77-10.654,10.654
	v51.212c0-4.687,3.8-8.487,8.487-8.487h12.095L61.276,166.361L61.276,166.361z"/>
    <path style="fill:#0385DD;" d="M460.651,155.706h-38.697v23.31v89.15h40.864c4.687,0,8.487,3.8,8.487,8.487V166.361
	C471.305,160.476,466.535,155.706,460.651,155.706z"/>
    <polygon style="fill:#0276C4;"
             points="444.594,155.706 421.954,155.706 421.954,179.016 421.954,268.166 444.594,268.166 "/>
    <path style="fill:#00C3FF;" d="M191.407,207.028c3.009,0,5.794,1.594,7.318,4.189l29.779,50.702
	c1.524,2.595,4.308,4.189,7.318,4.189h188.19V7.954c0-4.393-3.561-7.954-7.955-7.954H95.941c-4.393,0-7.954,3.561-7.954,7.954
	v199.074H191.407z"/>
    <path style="fill:#00AAF0;" d="M116.523,0H95.941c-4.393,0-7.954,3.561-7.954,7.954v199.074h20.582V7.954
	C108.569,3.561,112.13,0,116.523,0z"/>
    <path style="fill:#008CFF;" d="M228.504,261.919l-29.779-50.703c-1.524-2.595-4.309-4.189-7.318-4.189H49.181
	c-4.687,0-8.487,3.8-8.487,8.487v287.997c0,4.687,3.8,8.487,8.487,8.487h413.637c4.687,0,8.487-3.8,8.487-8.487V274.595
	c0-4.687-3.8-8.487-8.487-8.487H235.822C232.813,266.108,230.028,264.514,228.504,261.919z"/>
    <path style="fill:#0385DD;" d="M61.276,503.512V215.515c0-4.687,3.8-8.487,8.487-8.487H49.181c-4.687,0-8.487,3.8-8.487,8.487
	v287.997c0,4.687,3.8,8.487,8.487,8.487h20.582C65.076,511.999,61.276,508.199,61.276,503.512z"/>
    <circle style="fill:#FFC850;" cx="288.43" cy="95.74" r="32.432"/>
    <path style="fill:#F9B428;" d="M276.581,95.743c0-14.313,9.276-26.452,22.141-30.755c-3.235-1.082-6.692-1.677-10.291-1.677
	c-17.912,0-32.432,14.52-32.432,32.432s14.52,32.432,32.432,32.432c3.599,0,7.056-0.595,10.291-1.677
	C285.857,122.194,276.581,110.056,276.581,95.743z"/>
    <path style="fill:#7CE854;" d="M214.867,155.131c-5.251-7.061-13.764-7.061-19.015,0l-38.591,51.897h34.146
	c3.009,0,5.794,1.594,7.318,4.189l29.779,50.702c1.524,2.595,4.308,4.189,7.318,4.189h23.932l18.818-25.307L214.867,155.131z"/>
    <g>
	<path style="fill:#6FD844;" d="M214.867,155.131c-5.251-7.061-13.764-7.061-19.015,0l-38.591,51.897h20.582l37.808-50.843
		L214.867,155.131z"/>
        <path style="fill:#6FD844;" d="M249.086,261.919l-29.779-50.702c-1.524-2.595-4.308-4.189-7.318-4.189h-20.582
		c3.009,0,5.794,1.594,7.318,4.189l29.779,50.702c1.524,2.595,4.308,4.189,7.318,4.189h20.582
		C253.394,266.108,250.61,264.514,249.086,261.919z"/>
</g>
    <path style="fill:#9BF57D;"
          d="M337.229,183.482c-4.427-5.954-11.606-5.954-16.035,0l-61.441,82.626H398.67L337.229,183.482z"/>
    <path style="fill:#7CE854;" d="M337.229,183.482c-4.427-5.954-11.606-5.954-16.034,0l-61.441,82.626h20.582l59.167-79.568
	L337.229,183.482z"/>
    <g>
</g>
    <g>
</g>
    <g>
</g>
    <g>
</g>
    <g>
</g>
    <g>
</g>
    <g>
</g>
    <g>
</g>
    <g>
</g>
    <g>
</g>
    <g>
</g>
    <g>
</g>
    <g>
</g>
    <g>
</g>
    <g>
</g>
</svg>
